<svg width="32" height="32" viewBox="0 0 32 32" fill="none" xmlns="http://www.w3.org/2000/svg">
<path d="M15.8453 0C15.3097 0.0292184 14.6019 0.0227255 13.9137 0.116874C7.20642 1.04212 1.78478 6.07094 0.353072 12.6711C-1.07539 19.255 1.91464 26.1018 7.80053 29.7184C13.4754 33.2084 20.8936 32.6435 26.2211 28.3744C27.1464 27.6342 27.3899 27.1861 26.377 26.2219C23.1824 23.1767 20.1307 19.9854 16.9686 16.9077C16.2284 16.187 16.1797 15.7909 16.9491 15.0443C20.1534 11.9341 23.2668 8.72658 26.4646 5.6067C27.2211 4.86649 27.2892 4.47692 26.4094 3.76593C23.361 1.2986 19.9229 0.019479 15.8453 0Z" fill="#FF1919"/>
</svg>
