<svg width="523" height="166" viewBox="0 0 523 166" fill="none" xmlns="http://www.w3.org/2000/svg">
<g clip-path="url(#clip0_287_181)">
<path d="M195.79 114.15H189.44V145.5H175.35V45.4102H195.69C202.11 45.4102 207.13 47.1402 210.73 50.6002C214.33 54.0602 216.13 59.0402 216.13 65.5402V93.5002C216.13 99.8602 214.22 104.89 210.41 108.59C206.6 112.3 201.72 114.15 195.79 114.15ZM194.52 101.97C196.85 101.97 198.65 101.21 199.92 99.6902C201.19 98.1702 201.83 96.0402 201.83 93.2802V65.9502C201.83 63.2702 201.19 61.2002 199.92 59.7502C198.65 58.3002 196.85 57.5802 194.52 57.5802H189.44V101.96H194.52V101.97Z" fill="black"/>
<path d="M264.42 45.4102V128.24C264.42 134.17 262.69 138.69 259.23 141.8C255.77 144.91 250.86 146.46 244.51 146.46C238.16 146.46 233.35 144.92 229.89 141.85C226.43 138.78 224.7 134.31 224.7 128.45V45.4102H238.79V127.29C238.79 129.62 239.34 131.35 240.43 132.48C241.52 133.61 242.92 134.17 244.61 134.17C248.49 134.17 250.44 131.88 250.44 127.28V45.4102H264.42Z" fill="black"/>
<path d="M306.9 94.4502C309.94 95.1602 312.39 96.7302 314.26 99.1602C316.13 101.6 317.07 104.72 317.07 108.53V128.23C317.07 133.53 315.39 137.73 312.04 140.83C308.69 143.94 304.08 145.49 298.22 145.49H275.76V45.4102H298.32C303.69 45.4102 307.91 46.8202 310.98 49.6502C314.05 52.4802 315.59 56.2202 315.59 60.8802V80.0502C315.59 87.6102 312.69 92.1602 306.9 93.7102V94.4502ZM296.2 57.5902H289.84V88.4102H296.2C297.96 88.4102 299.36 87.9202 300.38 86.9302C301.4 85.9402 301.92 84.4902 301.92 82.5902V63.4202C301.92 59.5402 300.01 57.5902 296.2 57.5902ZM295.67 100.07H289.84V133.33H295.56C300.43 133.33 302.87 130.96 302.87 126.23V106.85C302.87 102.33 300.47 100.07 295.67 100.07Z" fill="black"/>
<path d="M339.94 133.32H357.21V145.5H325.86V45.4102H339.95V133.33L339.94 133.32Z" fill="black"/>
<path d="M362.61 45.4102H376.7V145.51H362.61V45.4102Z" fill="black"/>
<path d="M407.73 44.5596C414.37 44.5596 419.47 46.4696 423.04 50.2796C426.6 54.0896 428.39 59.4596 428.39 66.3796V124.53C428.39 131.52 426.59 136.92 422.99 140.74C419.39 144.55 414.3 146.46 407.74 146.46C401.18 146.46 396.12 144.55 392.59 140.74C389.06 136.93 387.29 131.53 387.29 124.53V66.3796C387.29 59.4596 389.05 54.0896 392.59 50.2796C396.12 46.4696 401.17 44.5596 407.74 44.5596H407.73ZM414.19 126.65V64.2596C414.19 61.9996 413.62 60.1996 412.5 58.8596C411.37 57.5196 409.85 56.8496 407.95 56.8496C406.05 56.8496 404.49 57.5196 403.29 58.8596C402.09 60.1996 401.49 61.9996 401.49 64.2596V126.65C401.49 128.91 402.09 130.73 403.29 132.11C404.49 133.49 406.01 134.18 407.84 134.18C409.67 134.18 411.28 133.49 412.45 132.11C413.62 130.73 414.2 128.92 414.2 126.65H414.19Z" fill="black"/>
<path d="M435.49 163.83C423.99 157.49 412.5 170.17 401 163.83V151.34C412.5 157.68 423.99 145 435.49 151.34V163.83Z" fill="black"/>
<path d="M478.49 45.4102V128.24C478.49 134.17 476.76 138.69 473.3 141.8C469.84 144.91 464.93 146.46 458.58 146.46C452.23 146.46 447.42 144.92 443.96 141.85C440.5 138.78 438.77 134.31 438.77 128.45V45.4102H452.86V127.29C452.86 129.62 453.41 131.35 454.5 132.48C455.59 133.61 456.99 134.17 458.68 134.17C462.56 134.17 464.51 131.88 464.51 127.28V45.4102H478.49Z" fill="black"/>
<path d="M503.91 133.32H522.02V145.5H489.82V45.4102H521.81V57.5902H503.91V87.9902H520.33V99.9602H503.91V133.33V133.32Z" fill="black"/>
<path d="M186.51 6.19043C182.87 6.19043 180.08 7.22043 178.2 9.25043C176.31 11.3004 175.35 14.3604 175.35 18.3704V26.8604C175.35 30.8704 176.31 33.9304 178.2 35.9804C180.08 38.0104 182.88 39.0404 186.51 39.0404C190.14 39.0404 192.74 38.1604 194.59 36.4404C196.43 34.7204 197.36 32.1304 197.36 28.7204V25.5604H189.94V28.9704C189.94 30.1404 189.65 31.1004 189.07 31.8304C188.46 32.6004 187.62 33.0004 186.58 33.0004C185.54 33.0004 184.7 32.6104 184.05 31.8504C183.43 31.1204 183.11 30.1504 183.11 28.9704V16.2704C183.11 15.0904 183.43 14.1304 184.05 13.3904C184.7 12.6304 185.55 12.2404 186.58 12.2404C187.61 12.2404 188.46 12.6304 189.07 13.4104C189.65 14.1404 189.94 15.1004 189.94 16.2704V19.4704L197.36 19.5004V16.5504C197.36 13.1004 196.44 10.4804 194.61 8.78043C192.77 7.06043 190.05 6.19043 186.51 6.19043Z" fill="black"/>
<path d="M213.87 6.19043C210.23 6.19043 207.43 7.22043 205.54 9.25043C203.64 11.3004 202.67 14.3604 202.67 18.3704V26.8604C202.67 30.8604 203.63 33.9304 205.54 35.9804C207.43 38.0104 210.22 39.0404 213.84 39.0404C217.46 39.0404 220.36 38.0104 222.28 35.9704C224.2 33.9204 225.18 30.8604 225.18 26.8604V18.3704C225.18 14.3704 224.21 11.3004 222.3 9.25043C220.4 7.22043 217.56 6.19043 213.88 6.19043H213.87ZM213.91 33.0004C212.88 33.0004 212.03 32.6104 211.38 31.8504C210.76 31.1204 210.44 30.1504 210.44 28.9704V16.3004C210.44 15.1204 210.76 14.1504 211.4 13.4204C212.06 12.6604 212.91 12.2704 213.94 12.2704C214.97 12.2704 215.85 12.6504 216.49 13.4004C217.1 14.1204 217.41 15.1004 217.41 16.3004V28.9704C217.41 30.1704 217.1 31.1404 216.49 31.8604C215.85 32.6104 214.98 32.9904 213.91 32.9904V33.0004Z" fill="black"/>
<path d="M256.53 38.5496H263.81V6.63965H252.08L249.22 22.6496L248.26 28.7796H246.71L245.71 22.6396L242.92 6.63965H231.13V38.5496H238.37V26.7896L237.99 17.4996H239.69L243.58 38.5496H251.08L255.29 17.5296H256.94L256.56 26.8496L256.53 38.5496Z" fill="black"/>
<path d="M295.65 38.5496H302.92V6.63965H291.2L288.34 22.6496L287.38 28.7796H285.83L284.83 22.6396L282.04 6.63965H270.25V38.5496H277.49V26.7896L277.11 17.4996H278.81L282.7 38.5496H290.2L294.41 17.5296H296.06L295.68 26.8496L295.65 38.5496Z" fill="black"/>
<path d="M309.26 6.63965V29.5896C309.26 32.7096 310.16 35.0896 311.94 36.6696C313.74 38.2696 316.45 39.0696 320 39.0696C323.55 39.0696 326.27 38.2396 328.15 36.6096C330.01 34.9996 330.95 32.5896 330.95 29.4496V6.63965H323.36V29.2096C323.36 30.4196 323.06 31.3596 322.48 31.9996C321.88 32.6596 321.07 32.9897 320.07 32.9897C319.07 32.9897 318.3 32.6596 317.7 31.9996C317.11 31.3596 316.82 30.4196 316.82 29.2096V6.63965H309.26Z" fill="black"/>
<path d="M352.05 38.5496H359.69V6.63965H352.42V15.1796L352.73 21.9396H351.18L345.6 6.63965H337.29V38.5496H344.53V27.2096L344.22 21.2196H345.74L352.05 38.5496Z" fill="black"/>
<path d="M373.72 6.63965H366.13V38.5496H373.72V6.63965Z" fill="black"/>
<path d="M390.84 6.19043C387.2 6.19043 384.41 7.22043 382.53 9.25043C380.64 11.3004 379.68 14.3604 379.68 18.3704V26.8604C379.68 30.8604 380.64 33.9304 382.53 35.9804C384.41 38.0104 387.21 39.0404 390.84 39.0404C394.47 39.0404 397.07 38.1604 398.92 36.4404C400.76 34.7204 401.69 32.1304 401.69 28.7204V25.5604H394.27V28.9704C394.27 30.1404 393.98 31.1004 393.4 31.8304C392.79 32.6004 391.95 33.0004 390.91 33.0004C389.87 33.0004 389.03 32.6104 388.38 31.8504C387.76 31.1204 387.44 30.1504 387.44 28.9704V16.2704C387.44 15.0904 387.76 14.1304 388.38 13.3904C389.03 12.6304 389.88 12.2404 390.91 12.2404C391.94 12.2404 392.79 12.6304 393.4 13.4104C393.98 14.1404 394.27 15.1004 394.27 16.2704V19.4704L401.69 19.5004V16.5504C401.69 13.1004 400.77 10.4804 398.94 8.78043C397.1 7.06043 394.38 6.19043 390.84 6.19043Z" fill="black"/>
<path d="M422.74 38.5496H430.67L424.15 6.63965H411.45L404.7 38.5496H412.56L413.44 33.2496L421.9 33.3297L422.74 38.5496ZM420.94 27.3396H414.45L415.9 18.6096L416.9 12.9296H418.47L419.51 18.5996L420.93 27.3396H420.94Z" fill="black"/>
<path d="M437.32 38.5496H444.88V12.7996H452.03V6.63965H430.13V12.7996H437.32V38.5496Z" fill="black"/>
<path d="M463.51 6.63965H455.92V38.5496H463.51V6.63965Z" fill="black"/>
<path d="M480.66 6.19043C477.02 6.19043 474.22 7.22043 472.33 9.25043C470.43 11.3004 469.46 14.3604 469.46 18.3704V26.8604C469.46 30.8604 470.42 33.9304 472.33 35.9804C474.22 38.0104 477.01 39.0404 480.63 39.0404C484.25 39.0404 487.15 38.0104 489.07 35.9704C490.99 33.9204 491.97 30.8604 491.97 26.8604V18.3704C491.97 14.3704 491 11.3004 489.09 9.25043C487.19 7.22043 484.35 6.19043 480.67 6.19043H480.66ZM480.7 33.0004C479.67 33.0004 478.82 32.6104 478.17 31.8504C477.55 31.1204 477.23 30.1504 477.23 28.9704V16.3004C477.23 15.1204 477.55 14.1504 478.19 13.4204C478.85 12.6604 479.7 12.2704 480.73 12.2704C481.76 12.2704 482.64 12.6504 483.28 13.4004C483.89 14.1204 484.2 15.1004 484.2 16.3004V28.9704C484.2 30.1704 483.89 31.1404 483.28 31.8604C482.64 32.6104 481.77 32.9904 480.7 32.9904V33.0004Z" fill="black"/>
<path d="M512.67 38.5496H520.31V6.63965H513.03V15.1796L513.34 21.9396H511.8L506.22 6.63965H497.91V38.5496H505.15V27.2096L504.84 21.2196H506.36L512.67 38.5496Z" fill="black"/>
<path d="M114.21 72.7V36.35H77.86C77.86 16.28 94.13 0 114.21 0C134.29 0 150.55 16.28 150.55 36.35C150.55 56.42 134.28 72.7 114.21 72.7Z" fill="#0046F0"/>
<path d="M36.35 0V36.35H72.7C72.7 56.42 56.43 72.7 36.35 72.7C16.27 72.7 0 56.42 0 36.35C0 16.28 16.28 0 36.35 0Z" fill="#FF0000"/>
<path d="M77.86 114.21H114.21V77.8604C134.28 77.8604 150.56 94.1304 150.56 114.21C150.56 134.29 134.28 150.55 114.21 150.55C94.14 150.55 77.86 134.28 77.86 114.21Z" fill="#FF0000"/>
<path d="M72.7 114.2H36.35V150.55C16.28 150.55 0 134.28 0 114.2C0 94.1203 16.28 77.8604 36.35 77.8604C56.42 77.8604 72.7 94.1303 72.7 114.2Z" fill="#0046F0"/>
</g>
<defs>
<clipPath id="clip0_287_181">
<rect width="522.02" height="165.66" fill="white"/>
</clipPath>
</defs>
</svg>
